<?xml version="1.0" encoding="utf-8"?>
<!-- Generator: Adobe Illustrator 19.2.0, SVG Export Plug-In . SVG Version: 6.00 Build 0)  -->
<svg version="1.1" id="Layer_1" xmlns="http://www.w3.org/2000/svg" xmlns:xlink="http://www.w3.org/1999/xlink" x="0px" y="0px"
	 viewBox="0 0 400 400" enable-background="new 0 0 400 400" xml:space="preserve">
<rect x="0" fill="none" width="400" height="400"/>
<g>
	<path fill="#FF8551" d="M262.7,234.2h-7.2v18.6c-13.3,12.4-30.6,19.2-48.9,19.2c-19.2,0-37.3-7.5-50.9-21.1
		c-13.6-13.6-21.1-31.7-21.1-50.9s7.5-37.3,21.1-50.9c13.6-13.6,31.7-21.1,50.9-21.1c19.2,0,37.3,7.5,50.9,21.1l33.9-33.9
		C268.7,92.5,238.6,80,206.5,80c-32.1,0-62.2,12.5-84.9,35.1C99,137.8,86.5,167.9,86.5,200s12.5,62.2,35.1,84.9s52.8,35.1,84.9,35.1
		c32.1,0,62.2-12.5,84.8-35.1c2.9-2.9,5.6-6,8.2-9.1C298.4,261,292.2,234.2,262.7,234.2z"/>
	<path fill="#FF8551" d="M256.1,173.9h-57.8v47.7h64.4c18.2,0,32.3,8.1,40.7,22.4v-16.4c0-15.4-4-28-11.8-37.5
		C283.1,179.6,270.5,173.9,256.1,173.9z"/>
</g>
</svg>
